<?xml version="1.0" encoding="utf-8"?>
<!-- Generator: Adobe Illustrator 18.1.1, SVG Export Plug-In . SVG Version: 6.00 Build 0)  -->
<svg version="1.1" id="Layer_1" xmlns="http://www.w3.org/2000/svg" xmlns:xlink="http://www.w3.org/1999/xlink" x="0px" y="0px"
	 viewBox="-273 494.7 612 218.5" enable-background="new -273 494.7 612 218.5" xml:space="preserve" preserveAspectRatio="xMinYMid meet">
<g>
	<path d="M-223.7,657.4h7.1c-1.5-3.7-2.8-7.7-3.9-11.7c-12.5-48.4,16.8-97.5,65-109.8c40.8-10.4,79.9,8,98.6,43l12.9-4.6
		c-17.1-47.5-67.8-75-117.7-62.2c-53.1,13.5-85.2,67.7-71.7,120.8C-231.1,641.7-227.9,649.8-223.7,657.4z"/>
	<path d="M-264.2,657.4h27.8c-3.7-7.1-6.7-14.8-8.8-23c-14.5-57.1,17.1-117.3,79.3-131.8c15.3-3.6,31.6-3,46.6,0
		c0.9,0.1,1.8-2.1,0-2.7c-20.3-6.8-42.7-6.7-65.2-1c-62.9,16-100.8,80.2-84.8,143.1C-268,647.2-266.2,652.4-264.2,657.4z"/>
	<path d="M-264.2,657.4h27.8c-3.7-7.1-6.7-14.8-8.8-23c-14.5-57.1,17.1-117.3,79.3-131.8c15.3-3.6,31.6-3,46.6,0
		c0.9,0.1,1.8-2.1,0-2.7c-20.3-6.8-42.7-6.7-65.2-1c-62.9,16-100.8,80.2-84.8,143.1C-268,647.2-266.2,652.4-264.2,657.4z"/>
	<path d="M-223.7,657.4h7.1c-1.5-3.7-2.8-7.7-3.9-11.7c-12.5-48.4,16.8-97.5,65-109.8c40.8-10.4,79.9,8,98.6,43l12.9-4.6
		c-17.1-47.5-67.8-75-117.7-62.2c-53.1,13.5-85.2,67.7-71.7,120.8C-231.1,641.7-227.9,649.8-223.7,657.4z"/>
</g>
<g>
	<g>
		<path d="M0.3,712.3V678H9v34.3H0.3z"/>
		<path d="M16.2,688.3c0-4,0-7.3-0.3-10.2h7.6l0.4,5.2H24c1.5-2.7,5.2-5.9,10.8-5.9c5.9,0,12.2,3.9,12.2,14.7v20.3h-8.6V693
			c0-4.9-1.8-8.6-6.5-8.6c-3.4,0-5.8,2.5-6.7,5c-0.3,0.7-0.3,1.8-0.3,2.8v20.2h-8.8L16.2,688.3L16.2,688.3z"/>
		<path d="M52.7,704.5c1.9,1.2,5.6,2.5,8.8,2.5c3.9,0,5.5-1.5,5.5-3.9s-1.3-3.6-5.6-5c-6.7-2.4-9.5-5.9-9.4-9.9
			c0-6.1,5-10.8,12.9-10.8c3.9,0,7.1,1,9.1,2.1l-1.6,6.1c-1.5-0.9-4.2-1.9-7.3-1.9c-3.1,0-4.7,1.5-4.7,3.6c0,2.2,1.6,3.3,5.9,4.7
			c6.2,2.2,9.1,5.3,9.2,10.5c0,6.2-4.9,10.7-14,10.7c-4.2,0-7.9-1-10.4-2.5L52.7,704.5z"/>
		<path d="M111,702.1c0,4,0.1,7.4,0.3,10.2h-7.6l-0.4-5.2h-0.1c-1.5,2.5-4.9,5.9-11,5.9c-6.2,0-12-3.7-12-14.8V678h8.6v18.7
			c0,5.6,1.8,9.4,6.4,9.4c3.4,0,5.6-2.5,6.7-4.6c0.3-0.7,0.4-1.6,0.4-2.7v-20.6h8.6v23.9H111z"/>
		<path d="M118.3,689.2c0-4.6,0-8-0.3-11h7.6l0.3,6.5h0.3c1.6-4.9,5.6-7.3,9.4-7.3c0.9,0,1.3,0,2.1,0.1v8.2
			c-0.7-0.1-1.5-0.3-2.5-0.3c-4.2,0-7,2.7-7.7,6.5c-0.1,0.7-0.3,1.6-0.3,2.7v17.7h-8.6L118.3,689.2L118.3,689.2z"/>
		<path d="M167.1,704.2c0,3.1,0.1,6.1,0.4,8.2h-7.9l-0.6-3.9h-0.1c-2.1,2.7-5.6,4.6-10.1,4.6c-6.8,0-10.8-5-10.8-10.2
			c0-8.6,7.7-13.1,20.3-12.9v-0.6c0-2.2-0.9-5.9-7-5.9c-3.4,0-6.8,1-9.2,2.5l-1.6-5.6c2.5-1.5,7-3,12.3-3c11,0,14.1,7,14.1,14.4
			v12.5L167.1,704.2L167.1,704.2z M158.7,695.6c-6.1-0.1-12,1.2-12,6.4c0,3.4,2.2,4.9,4.9,4.9c3.4,0,5.9-2.2,6.8-4.7
			c0.1-0.6,0.3-1.3,0.3-1.9V695.6z"/>
		<path d="M172.8,688.3c0-4,0-7.3-0.3-10.2h7.6l0.4,5.2h0.1c1.5-2.7,5.2-5.9,10.8-5.9c5.9,0,12.2,3.9,12.2,14.7v20.3H195V693
			c0-4.9-1.8-8.6-6.5-8.6c-3.4,0-5.8,2.5-6.7,5c-0.3,0.7-0.3,1.8-0.3,2.8v20.2h-8.8C172.8,712.5,172.8,688.3,172.8,688.3z"/>
		<path d="M236,711.3c-1.8,0.9-5.3,1.8-9.6,1.8c-10.7,0-17.7-6.8-17.7-17.5c0-10.2,7-18.3,19-18.3c3.1,0,6.4,0.7,8.3,1.6l-1.5,6.5
			c-1.3-0.6-3.4-1.3-6.5-1.3c-6.7,0-10.5,4.9-10.5,11.1c0,7,4.6,11,10.5,11c3,0,5.2-0.6,6.8-1.3L236,711.3z"/>
		<path d="M246.4,697.6c0.1,6.2,5,8.9,10.5,8.9c4,0,6.8-0.6,9.5-1.5l1.2,5.9c-3,1.2-7,2.2-12,2.2c-11.1,0-17.7-6.8-17.7-17.4
			c0-9.5,5.8-18.4,16.8-18.4c11.1,0,14.8,9.2,14.8,16.6c0,1.6-0.1,2.8-0.3,3.7h-22.9V697.6z M261.4,691.6c0-3.1-1.3-8.3-7.1-8.3
			c-5.3,0-7.6,4.9-8,8.3H261.4z"/>
	</g>
</g>
<g>
	<g>
		<path d="M-185.6,657.4v-8.2l8.3-7.7c16.5-15.3,24.2-23.7,24.3-33c0-6.2-3.4-11.7-12.5-11.7c-6.1,0-11.4,3.1-15,5.8l-3.9-9.4
			c5-4.2,12.8-7.3,21.5-7.3c15.6,0,23.2,9.8,23.2,21.2c0,12.3-8.9,22.3-21.1,33.5l-6.1,5.3v0.1h28.8v11h-47.6V657.4z"/>
		<path d="M-120,599.2h-0.1l-12.8,6.5l-2.4-10.1l17.1-8.5h11.1v70.1h-12.8v-58H-120z"/>
		<path d="M-95.6,645.1c3,1.8,8.8,3.7,13.5,3.7c5.8,0,8.5-2.4,8.5-5.8c0-3.6-2.2-5.3-8.6-7.7c-10.2-3.6-14.5-9.2-14.4-15.3
			c0-9.2,7.7-16.5,19.9-16.5c5.8,0,10.8,1.5,14,3.1l-2.5,9.4c-2.2-1.3-6.5-3-11.1-3c-4.7,0-7.3,2.2-7.3,5.5c0,3.4,2.5,4.9,9.2,7.3
			c9.5,3.4,14,8.3,14,16c0,9.5-7.4,16.5-21.4,16.5c-6.4,0-12-1.6-16-3.7L-95.6,645.1z"/>
		<path d="M-38,591.4v13.5h12.6v9.9H-38V638c0,6.4,1.8,9.6,6.8,9.6c2.5,0,3.7-0.1,5.2-0.6l0.1,10.1c-1.9,0.7-5.3,1.3-9.6,1.3
			c-4.9,0-8.9-1.8-11.4-4.5c-2.8-3-4.2-7.7-4.2-14.7v-24.5h-7.6v-9.9h7.6v-9.6L-38,591.4z"/>
		<path d="M49.3,655.2c-3.1,1.6-10.1,3.4-18.7,3.4c-23,0-37.1-14.5-37.1-36.7c0-23.9,16.6-38.4,38.9-38.4c8.8,0,15,1.8,17.7,3.3
			l-3,10.5c-3.4-1.5-8.2-2.8-14.2-2.8c-14.8,0-25.4,9.2-25.4,26.7c0,16,9.4,26.3,25.4,26.3c5.3,0,11-1,14.4-2.7L49.3,655.2z"/>
		<path d="M64.4,634.8c0.3,9.5,7.7,13.7,16.2,13.7c6.1,0,10.5-0.9,14.5-2.4l1.9,9.2c-4.5,1.8-10.8,3.4-18.4,3.4
			c-17.1,0-27-10.5-27-26.6c0-14.5,8.9-28.2,25.7-28.2c17.2,0,22.7,14,22.7,25.5c0,2.5-0.1,4.5-0.4,5.6H64.4L64.4,634.8L64.4,634.8z
			 M87.6,625.5c0.1-4.9-2.1-12.8-10.8-12.8c-8.2,0-11.6,7.4-12.2,12.8H87.6z"/>
		<path d="M106.4,620.5c0-6.1-0.1-11.1-0.4-15.6h11.6l0.6,7.9h0.3c2.2-4.2,8-9.1,16.8-9.1c9.2,0,18.7,5.9,18.7,22.6v31.2h-13.2
			v-29.7c0-7.6-2.8-13.2-10.1-13.2c-5.3,0-8.9,3.7-10.4,7.7c-0.4,1.2-0.6,2.8-0.6,4.3v30.9h-13.4L106.4,620.5L106.4,620.5z"/>
		<path d="M177.8,591.4v13.5h12.6v9.9h-12.6V638c0,6.4,1.8,9.6,6.8,9.6c2.5,0,3.7-0.1,5.2-0.6l0.1,10.1c-1.9,0.7-5.3,1.3-9.6,1.3
			c-4.9,0-8.9-1.8-11.4-4.5c-2.8-3-4.2-7.7-4.2-14.7v-24.5h-7.6v-9.9h7.6v-9.6L177.8,591.4z"/>
		<path d="M244.3,641.5c0,6.2,0.1,11.4,0.4,15.7h-11.6l-0.6-8h-0.1c-2.2,3.7-7.4,9.2-16.8,9.2c-9.6,0-18.4-5.8-18.4-22.9v-30.7h13.2
			v28.6c0,8.8,2.8,14.4,9.8,14.4c5.3,0,8.8-3.7,10.1-7.1c0.4-1.2,0.7-2.5,0.7-4.2v-31.8h13.2L244.3,641.5L244.3,641.5z"/>
		<path d="M253.5,621.8c0-7.1-0.1-12.2-0.4-16.9h11.6l0.4,10.1h0.4c2.5-7.4,8.8-11.3,14.4-11.3c1.3,0,2.1,0.1,3.1,0.3v12.5
			c-1-0.1-2.2-0.4-3.9-0.4c-6.4,0-10.7,4.2-11.9,10.1c-0.1,1.2-0.4,2.5-0.4,4.2v27.2h-13.2v-35.6H253.5L253.5,621.8z"/>
		<path d="M301,604.9l9.5,28.2c1,3.3,2.2,7.3,3,10.2h0.3c0.9-3,1.8-7,2.8-10.4l8.2-28.1H339l-13.2,35.8c-7.3,19.6-12,28.4-18.4,33.7
			c-5.2,4.6-10.5,6.4-14,6.8l-3-11.3c2.2-0.6,5-1.8,7.7-3.7c2.5-1.6,5.3-4.8,7.3-8.3c0.6-1,0.9-1.8,0.9-2.4c0-0.6-0.1-1.3-0.7-2.5
			l-19.1-48.2L301,604.9L301,604.9z"/>
	</g>
</g>
</svg>
