<?xml version="1.0" encoding="utf-8"?>
<!-- Generator: Adobe Illustrator 18.1.1, SVG Export Plug-In . SVG Version: 6.00 Build 0)  -->
<svg version="1.1" id="Layer_2" xmlns="http://www.w3.org/2000/svg" xmlns:xlink="http://www.w3.org/1999/xlink" x="0px" y="0px"
	 viewBox="0 318.3 612 155.9" enable-background="new 0 318.3 612 155.9" xml:space="preserve" preserveAspectRatio="xMinYMid meet">
<g>
	<rect x="131" y="320.9" width="10.4" height="90.6"/>
	<polygon points="165.6,410.7 165.6,322.6 174.4,319.1 219.5,392.1 219.5,321.1 230.5,321.1 230.5,409.3 222.2,412.7 176.1,340.1
		176.1,410.9 	"/>
	<polygon points="349.7,410.7 349.7,322.6 358.4,319.1 403.5,392.1 403.5,321.1 414.7,321.1 414.7,409.3 406.4,412.7 360.1,340.1
		360.1,410.9 	"/>
	<polygon points="297.8,329.9 297.8,320.5 253.4,320.5 253.4,410.7 263.4,410.7 263.4,370.1 295.6,370.1 295.6,360.5 263.4,360.5
		263.4,329.9 	"/>
	<rect x="315.4" y="320.5" width="10" height="90.6"/>
	<rect x="439" y="320.5" width="10" height="90.6"/>
	<polygon points="525.1,320.3 464.3,320.3 464.3,329.3 489,329.3 489,410.7 500.4,410.7 500.4,329.3 525.1,329.3 	"/>
	<polygon points="602.6,325 593,318.3 566.5,364.4 541.4,318.5 532.2,324.6 560.8,372.7 560.8,411.3 570,411.3 570,374.2 	"/>
</g>
<polygon points="87.3,343 108.9,320.5 0,320.5 0,414.8 18,414.8 70.8,359.9 92.4,359.9 59,414.8 112.8,414.8 112.8,326.4 102.6,343
	"/>
<rect x="40" y="436.2" width="511.6" height="4.5"/>
<g>
	<path d="M112.6,469l-1.8,4.1H104l9.6-23.9h7.1l9.4,23.9h-6.9l-1.6-4.1H112.6z M117.3,456.6L117.3,456.6l-2.9,7.5h5.5L117.3,456.6z"
		/>
	<path d="M147.5,456.8v8.8c0,1.2,0.2,2,0.6,2.7c0.4,0.6,1.2,0.8,2.4,0.8s2-0.2,2.4-0.8c0.4-0.6,0.6-1.4,0.6-2.7v-8.8h6.1v9.8
		c0,1.2-0.2,2.4-0.6,3.3c-0.4,0.8-1,1.6-1.8,2.2c-0.8,0.6-1.8,0.8-2.9,1.2c-1,0.2-2.2,0.4-3.7,0.4c-1.4,0-2.7-0.2-3.7-0.4
		c-1-0.2-2-0.6-2.9-1.2c-0.8-0.6-1.4-1.2-1.8-2.2c-0.4-0.8-0.6-2-0.6-3.3v-9.8H147.5z"/>
	<path d="M179.5,473.1h-6.1v-11.4h-2V457h2v-4.9h6.1v4.9h3.5v4.7h-3.5V473.1z"/>
	<path d="M207.3,457c1.2,0.4,2.4,1,3.3,1.6c1,0.8,1.6,1.6,2.2,2.7c0.6,1,0.8,2.2,0.8,3.7c0,1.4-0.2,2.4-0.8,3.7
		c-0.6,1-1.2,2-2.2,2.7c-1,0.8-2,1.2-3.3,1.6c-1.2,0.4-2.7,0.6-3.9,0.6c-1.4,0-2.7-0.2-3.9-0.6c-1.2-0.4-2.4-1-3.3-1.6
		c-1-0.8-1.6-1.6-2.2-2.7c-0.6-1-0.8-2.2-0.8-3.7s0.2-2.7,0.8-3.7c0.6-1,1.2-2,2.2-2.7c1-0.8,2-1.2,3.3-1.6c1.2-0.4,2.7-0.6,3.9-0.6
		C204.6,456.4,206,456.6,207.3,457z M200.3,462.3c-0.6,0.6-1,1.6-1,2.7c0,1,0.4,1.8,1,2.7c0.6,0.6,1.6,1,2.9,1s2.2-0.4,2.9-1
		c0.6-0.6,1-1.6,1-2.7c0-1-0.4-1.8-1-2.7c-0.6-0.6-1.6-1-2.9-1C202.2,461.3,201.1,461.7,200.3,462.3z"/>
	<path d="M253.2,473.1h-6.5v-23.9h6.5V473.1z"/>
	<path d="M272.7,459L272.7,459c0.8-1,1.6-1.6,2.4-2s1.8-0.6,3.1-0.6c2.2,0,3.9,0.6,4.9,1.8c1,1.2,1.6,2.9,1.6,4.9v10h-6.1v-8
		c0-0.6,0-1.2,0-1.8c0-0.4-0.2-1-0.4-1.2c-0.2-0.4-0.4-0.6-0.8-0.8c-0.4-0.2-0.8-0.4-1.4-0.4c-1.2,0-2,0.4-2.4,1
		c-0.4,0.6-0.8,1.6-0.8,2.7v8.4h-6.1v-16.3h6.1L272.7,459L272.7,459z"/>
	<path d="M309.3,461.1c-0.4-0.2-1-0.4-1.6-0.6c-0.6-0.2-1.2-0.2-1.6-0.2s-0.8,0-1.2,0.2c-0.4,0.2-0.6,0.4-0.6,0.8
		c0,0.4,0.2,0.8,0.6,0.8c0.4,0.2,1,0.4,1.8,0.4h0.4c1.6,0.2,2.9,0.8,3.7,1.6c0.8,0.8,1.2,1.8,1.2,3.3c0,1-0.2,2-0.6,2.7
		c-0.4,0.8-1,1.4-1.8,1.8c-0.8,0.4-1.6,0.8-2.7,1c-1,0.2-2,0.4-3.1,0.4c-1.2,0-2.4-0.2-3.7-0.4c-1.2-0.4-2.2-0.8-3.3-1.4l2.2-4.1
		c0.6,0.4,1.4,0.8,2.4,1.2c0.8,0.4,1.6,0.4,2.4,0.4c0.4,0,0.8-0.2,1.2-0.4c0.4-0.2,0.6-0.6,0.6-1s-0.2-0.8-0.6-1
		c-0.4-0.2-1-0.4-2-0.6c-0.6-0.2-0.8-0.2-1.2-0.2c-0.6-0.2-1-0.4-1.4-0.4c-0.4-0.2-0.8-0.4-1.2-0.8c-0.4-0.4-0.6-0.8-0.8-1.2
		c-0.2-0.4-0.4-1-0.4-1.8c0-1,0.2-1.8,0.6-2.4c0.4-0.8,1-1.4,1.6-1.8c0.8-0.4,1.6-0.8,2.4-1c0.8-0.2,1.8-0.4,2.9-0.4
		c2,0,4.1,0.4,5.7,1L309.3,461.1z"/>
	<path d="M330.5,456.8v8.8c0,1.2,0.2,2,0.6,2.7c0.4,0.6,1.2,0.8,2.4,0.8s2-0.2,2.4-0.8c0.4-0.6,0.6-1.4,0.6-2.7v-8.8h6.1v9.8
		c0,1.2-0.2,2.4-0.6,3.3c-0.4,0.8-1,1.6-1.8,2.2s-1.8,0.8-2.9,1.2c-1,0.2-2.2,0.4-3.7,0.4c-1.4,0-2.7-0.2-3.7-0.4
		c-1-0.2-2-0.6-2.9-1.2c-0.8-0.6-1.4-1.2-1.8-2.2c-0.4-0.8-0.6-2-0.6-3.3v-9.8H330.5z"/>
	<path d="M361.9,459.4L361.9,459.4c0.6-1,1.4-1.6,2.4-2.2c1-0.4,2-0.6,3.3-0.6h1.2v5.5c-0.4-0.2-0.8-0.4-1.2-0.4s-0.8-0.2-1.4-0.2
		c-1.6,0-2.7,0.4-3.3,1.2c-0.6,0.8-1,2-1,3.7v6.5h-6.1v-16.3h6.1V459.4z"/>
	<path d="M399,473.1h-6.1v-1.8l0,0c-0.6,0.8-1.2,1.4-2.2,1.8c-1,0.4-1.8,0.6-3.1,0.6c-1.2,0-2.4-0.2-3.5-0.6c-1-0.4-2-1-2.9-1.8
		c-0.8-0.8-1.4-1.8-1.8-2.9c-0.4-1-0.6-2.2-0.6-3.3c0-1.2,0.2-2.2,0.6-3.3s1-2,1.8-2.9c0.8-0.8,1.6-1.4,2.7-1.8
		c1-0.4,2.2-0.6,3.5-0.6c1,0,2,0.2,2.9,0.6c1,0.4,1.6,0.8,2.4,1.6v-1.6h6.1v15.9H399z M386.4,462.3c-0.6,0.6-1,1.6-1,2.7
		c0,1,0.4,1.8,1,2.7c0.6,0.6,1.6,1,2.9,1c1.2,0,2.2-0.4,2.9-1c0.6-0.6,1-1.6,1-2.7c0-1-0.4-1.8-1-2.7c-0.6-0.6-1.6-1-2.9-1
		C388,461.3,387,461.7,386.4,462.3z"/>
	<path d="M418.4,459L418.4,459c0.8-1,1.6-1.6,2.4-2c0.8-0.4,1.8-0.6,3.1-0.6c2.2,0,3.9,0.6,4.9,1.8s1.6,2.9,1.6,4.9v10h-6.1v-8
		c0-0.6,0-1.2,0-1.8c0-0.4-0.2-1-0.4-1.2c-0.2-0.4-0.4-0.6-0.8-0.8c-0.4-0.2-0.8-0.4-1.4-0.4c-1.2,0-2,0.4-2.4,1s-0.8,1.6-0.8,2.7
		v8.4h-6.1v-16.3h6.1L418.4,459L418.4,459z"/>
	<path d="M456.1,462.1c-0.4-0.4-1-0.6-1.4-0.8c-0.6-0.2-1-0.2-1.6-0.2c-1.2,0-2.2,0.4-3.1,1.2c-0.8,0.8-1.2,1.6-1.2,2.9
		s0.4,2,1.2,2.9c0.8,0.8,1.8,1.2,3.1,1.2c0.6,0,1,0,1.6-0.2c0.6-0.2,1-0.4,1.4-0.8v4.9c-1.2,0.6-2.7,1-4.3,1c-1.2,0-2.4-0.2-3.7-0.6
		c-1.2-0.4-2-1-3.1-1.8c-0.8-0.8-1.4-1.6-2-2.7c-0.4-1-0.8-2.2-0.8-3.5s0.2-2.4,0.8-3.5c0.4-1,1.2-2,2-2.9s1.8-1.4,3.1-1.8
		c1.2-0.4,2.4-0.6,3.7-0.6c1.4,0,2.9,0.4,4.1,1v4.3H456.1z"/>
	<path d="M486.7,466h-12.9c0,2.4,1.2,3.7,3.9,3.7c1.2,0,2.2-0.4,2.9-1.4h5.9c-0.4,1.8-1.4,3.3-3.1,4.1c-1.6,1-3.5,1.4-5.5,1.4
		c-2.9,0-5.3-0.8-7.1-2.2c-1.8-1.4-2.7-3.7-2.7-6.3c0-1.4,0.2-2.4,0.6-3.7c0.4-1,1-2,2-2.9c0.8-0.8,1.8-1.4,3.1-1.6
		c1.2-0.4,2.4-0.6,3.9-0.6c3.1,0,5.3,0.8,6.9,2.4c1.6,1.6,2.4,3.9,2.4,6.5v0.6H486.7z M481.2,462.7c-0.2-0.8-0.6-1.4-1.2-1.8
		s-1.4-0.6-2.2-0.6c-0.8,0-1.6,0.2-2.4,0.6c-0.6,0.4-1,1-1.2,1.8H481.2z"/>
</g>
<g>
	<path d="M612,408c0,2.4-0.8,4.5-2.7,6.3s-4.1,2.7-6.5,2.7c-2.7,0-4.7-0.8-6.5-2.7c-1.8-1.6-2.7-3.9-2.7-6.3c0-1.4,0.2-2.7,0.8-3.7
		c0.6-1.2,1.4-2.2,2.4-3.1c1.8-1.4,3.7-2,5.9-2c1.4,0,2.7,0.2,3.9,0.8c1.6,0.6,3.1,1.8,4.1,3.3C611.6,404.6,612,406.2,612,408z
		 M602.6,400.5c-2,0-3.9,0.8-5.5,2.2c-1.4,1.4-2.2,3.3-2.2,5.3c0,2,0.8,3.9,2.2,5.3c1.4,1.4,3.5,2.2,5.5,2.2c2.2,0,4.1-0.8,5.5-2.2
		c1.4-1.4,2.2-3.3,2.2-5.3c0-1.2-0.2-2.2-0.8-3.5c-0.6-1.2-1.4-2-2.4-2.7C605.9,400.9,604.2,400.5,602.6,400.5z M603.6,408.9
		l3.5,4.3h-2.4l-3.3-4.1v4.1h-2v-10.2h2.2c1.4,0,2.7,0.2,3.3,0.8c0.8,0.6,1.2,1.4,1.2,2.2c0,0.6-0.2,1.2-0.6,1.8
		C604.9,408.2,604.5,408.6,603.6,408.9L603.6,408.9z M601.4,407.4h0.4c1.4,0,2.2-0.4,2.2-1.4c0-0.8-0.8-1.4-2.2-1.4h-0.4V407.4z"/>
</g>
</svg>
