<?xml version="1.0" encoding="utf-8"?>
<!-- Generator: Adobe Illustrator 18.1.1, SVG Export Plug-In . SVG Version: 6.00 Build 0)  -->
<svg version="1.1" id="SC" xmlns="http://www.w3.org/2000/svg" xmlns:xlink="http://www.w3.org/1999/xlink" x="0px" y="0px"
	 viewBox="337 357 278 76" enable-background="new 337 357 278 76" xml:space="preserve" preserveAspectRatio="xMinYMid meet">
<g>
	<g>
		<g>
			<g>
				<path fill="#292F31" d="M420.1,421.8l1-1.2c1.5,1.4,3,2.1,5,2.1s3.2-1,3.2-2.5l0,0c0-1.3-0.7-2.1-3.8-2.8
					c-3.3-0.7-4.9-1.8-4.9-4.2l0,0c0-2.3,2-4,4.8-4c2.1,0,3.6,0.6,5.1,1.8l-1,1.3c-1.3-1.1-2.7-1.6-4.2-1.6c-1.9,0-3.1,1-3.1,2.3
					l0,0c0,1.4,0.7,2.1,3.9,2.8c3.2,0.7,4.7,1.9,4.7,4.1l0,0c0,2.5-2.1,4.1-5,4.1C423.7,424.1,421.8,423.3,420.1,421.8z"/>
				<path fill="#292F31" d="M433.9,413.2h1.6v2.2c0.9-1.3,2.1-2.4,4.1-2.4c2.6,0,5.1,2,5.1,5.6l0,0c0,3.5-2.5,5.6-5.1,5.6
					c-2,0-3.3-1.1-4.1-2.3v5.4h-1.6V413.2z M443.1,418.6L443.1,418.6c0-2.6-1.7-4.2-3.8-4.2c-2,0-3.9,1.7-3.9,4.1l0,0
					c0,2.5,1.9,4.2,3.9,4.2C441.4,422.7,443.1,421.2,443.1,418.6z"/>
				<path fill="#292F31" d="M452.2,422.8c1.5,0,2.5-0.6,3.4-1.5l1,0.9c-1.1,1.2-2.4,2-4.4,2c-2.9,0-5.4-2.3-5.4-5.6
					c0-3.1,2.2-5.6,5.1-5.6c3.2,0,5,2.5,5,5.7c0,0.1,0,0.3,0,0.6h-8.5C448.6,421.4,450.3,422.8,452.2,422.8z M455.3,417.9
					c-0.2-2-1.3-3.6-3.4-3.6c-1.8,0-3.3,1.5-3.5,3.6H455.3z"/>
				<path fill="#292F31" d="M458.8,418.6L458.8,418.6c0-3.1,2.4-5.6,5.5-5.6c2,0,3.3,0.9,4.3,1.9l-1.1,1.1c-0.9-0.9-1.8-1.6-3.3-1.6
					c-2.2,0-3.8,1.8-3.8,4.2l0,0c0,2.3,1.7,4.2,3.9,4.2c1.4,0,2.4-0.7,3.3-1.6l1,1c-1.1,1.2-2.4,2.1-4.4,2.1
					C461.2,424.1,458.8,421.6,458.8,418.6z"/>
				<path fill="#292F31" d="M471.2,409.1h1.8v0.8v1h-1.8V409.1z M471.3,413.2h1.6v2.5v8.3h-1.6V413.2z"/>
				<path fill="#292F31" d="M475.6,420.8L475.6,420.8c0-2.3,1.9-3.5,4.6-3.5c1.4,0,2.3,0.2,3.3,0.5v-0.3c0-1.9-1.2-2.9-3.2-2.9
					c-1.3,0-2.3,0.3-3.3,0.8l-0.5-1.3c1.2-0.5,2.3-0.9,3.9-0.9c1.5,0,2.7,0.4,3.5,1.2c0.7,0.7,1.1,1.8,1.1,3.2v6.6h-1.6v-1.6
					c-0.7,1-2,1.8-3.9,1.8C477.6,424.1,475.6,423,475.6,420.8z M483.5,420v-1c-0.8-0.2-1.8-0.5-3.1-0.5c-2,0-3.1,0.9-3.1,2.2l0,0
					c0,1.3,1.2,2.1,2.7,2.1C481.9,422.8,483.5,421.7,483.5,420z"/>
				<path fill="#292F31" d="M488.4,408.7h1.6v12.8v2.3h-1.6V408.7z"/>
				<path fill="#292F31" d="M494,421.1v-6.5h-1.5v-1.4h1.5V410h1.6v3.2h3.4v1.4h-3.4v6.3c0,1.3,0.7,1.8,1.8,1.8c0.5,0,1-0.1,1.6-0.4
					v1.4c-0.6,0.3-1.2,0.5-1.9,0.5C495.3,424.1,494,423.2,494,421.1z"/>
				<path fill="#292F31" d="M501,426.7l0.5-1.3c0.5,0.3,1,0.4,1.7,0.4c1,0,1.6-0.5,2.2-2l-4.9-10.7h1.8l3.9,8.9l3.4-8.9h1.7
					l-4.5,11.1c-0.9,2.2-2,3-3.6,3C502.4,427.3,501.7,427.1,501,426.7z"/>
				<path fill="#292F31" d="M519.3,416.7L519.3,416.7c0-4.2,3.1-7.6,7.3-7.6c2.6,0,4.2,0.9,5.7,2.3l-1.1,1.2c-1.2-1.2-2.6-2-4.6-2
					c-3.2,0-5.6,2.6-5.6,6l0,0c0,3.4,2.4,6,5.6,6c2,0,3.3-0.8,4.7-2.1l1.1,1.1c-1.5,1.5-3.2,2.6-5.8,2.6
					C522.4,424.1,519.3,420.8,519.3,416.7z"/>
				<path fill="#292F31" d="M534,420.8L534,420.8c0-2.3,1.9-3.5,4.6-3.5c1.4,0,2.3,0.2,3.3,0.5v-0.3c0-1.9-1.2-2.9-3.2-2.9
					c-1.3,0-2.3,0.3-3.3,0.8l-0.5-1.3c1.2-0.5,2.3-0.9,3.9-0.9c1.5,0,2.7,0.4,3.5,1.2c0.7,0.7,1.1,1.8,1.1,3.2v6.6h-1.6v-1.6
					c-0.7,1-2,1.8-3.9,1.8C536,424.1,534,423,534,420.8z M541.9,420v-1c-0.8-0.2-1.8-0.5-3.1-0.5c-2,0-3.1,0.9-3.1,2.2l0,0
					c0,1.3,1.2,2.1,2.7,2.1C540.3,422.8,541.9,421.7,541.9,420z"/>
				<path fill="#292F31" d="M546.8,408.7h1.6v12.1v3h-1.6V408.7z"/>
				<path fill="#292F31" d="M551.9,409.1h1.8v0.7v1.1h-1.8V409.1z M552,413.2h1.6v7.4v3.3H552V413.2z"/>
				<path fill="#292F31" d="M557.7,414.6h-1.5v-1.4h1.5v-0.9c0-1.2,0.3-2.2,0.9-2.8c0.5-0.5,1.3-0.8,2.3-0.8c0.7,0,1.2,0.1,1.8,0.3
					v1.4c-0.6-0.2-1-0.3-1.6-0.3c-1.2,0-1.9,0.7-1.9,2.3v0.9h3.4v1.4h-3.4v9.3h-1.6v-9.4H557.7z"/>
				<path fill="#292F31" d="M563.6,418.6L563.6,418.6c0-3.1,2.4-5.6,5.6-5.6s5.6,2.5,5.6,5.6l0,0c0,3-2.4,5.6-5.6,5.6
					C566,424.1,563.6,421.6,563.6,418.6z M573.2,418.6L573.2,418.6c0-2.3-1.7-4.2-4-4.2s-3.9,1.9-3.9,4.2l0,0c0,2.3,1.7,4.2,4,4.2
					C571.6,422.7,573.2,420.8,573.2,418.6z"/>
				<path fill="#292F31" d="M577.5,413.2h1.6v2.8c0.8-1.8,2.3-3.1,4.4-3v1.7h-0.1c-2.3,0-4.3,1.7-4.3,4.9v4.3h-1.6V413.2z"/>
				<path fill="#292F31" d="M585.7,413.2h1.6v1.9c0.7-1.2,1.8-2.1,3.7-2.1c2.6,0,4.1,1.7,4.1,4.3v6.7h-1.6v-6.3c0-2-1.1-3.2-3-3.2
					c-1.8,0-3.2,1.3-3.2,3.4v6.1h-1.6V413.2z"/>
				<path fill="#292F31" d="M598.3,409.1h1.8v0.8v1h-1.8V409.1z M598.4,413.2h1.6v8.8v1.9h-1.6V413.2z"/>
				<path fill="#292F31" d="M602.7,420.8L602.7,420.8c0-2.3,1.9-3.5,4.6-3.5c1.4,0,2.3,0.2,3.3,0.5v-0.3c0-1.9-1.2-2.9-3.2-2.9
					c-1.3,0-2.3,0.3-3.3,0.8l-0.5-1.3c1.2-0.5,2.3-0.9,3.9-0.9c1.5,0,2.7,0.4,3.5,1.2c0.7,0.7,1.1,1.8,1.1,3.2v6.6h-1.6v-1.6
					c-0.7,1-2,1.8-3.9,1.8C604.7,424.1,602.7,423,602.7,420.8z M610.6,420v-1c-0.8-0.2-1.8-0.5-3.1-0.5c-2,0-3.1,0.9-3.1,2.2l0,0
					c0,1.3,1.2,2.1,2.7,2.1C609,422.8,610.6,421.7,610.6,420z"/>
			</g>
		</g>
	</g>
	<g>
		<polygon fill="#52646C" points="337.7,360.2 337.7,432.2 397.8,432.2 367.8,396.2 		"/>

			<linearGradient id="SVGID_1_" gradientUnits="userSpaceOnUse" x1="356.2983" y1="420.378" x2="390.8566" y2="445.486" gradientTransform="matrix(1 0 0 -1 0 796)">
			<stop  offset="0" style="stop-color:#292F31"/>
			<stop  offset="0.1709" style="stop-color:#363F42"/>
			<stop  offset="0.4024" style="stop-color:#455358"/>
			<stop  offset="0.5869" style="stop-color:#4E6067"/>
			<stop  offset="0.7" style="stop-color:#52646C"/>
		</linearGradient>
		<polygon fill="url(#SVGID_1_)" points="397.8,360.2 337.7,360.2 367.8,396.2 		"/>
		<path fill="#292F31" d="M421,368.5h6v12.9l12.1-12.9h7.2l-11.7,12.1l12.2,16.4h-7.2l-9.1-12.3l-3.6,3.7v8.6h-6v-28.5H421z
			 M452.5,397h21.6v-5.3h-15.7v-6.4H472V380h-13.6v-6.2h15.5v-5.3h-21.4V397z M481.9,397h5.8v-19l8.2,12.4h0.2l8.3-12.5V397h5.9
			v-28.5h-6.4l-7.8,12.4l-7.8-12.4h-6.4L481.9,397L481.9,397z M547.8,397h21.6v-5.3h-15.7v-6.4h13.6V380h-13.6v-6.2h15.5v-5.3h-21.4
			V397z M524.9,383v-9.1h5.1c3.3,0,5.4,1.6,5.4,4.5v0.1c0,2.6-2,4.5-5.3,4.5H524.9z M518.9,397h6v-8.7h5c6.4,0,11.5-3.4,11.5-9.9
			v-0.1c0-5.8-4.1-9.8-10.9-9.8H519L518.9,397L518.9,397z M583.1,382.4v-8.5h6.5c3.2,0,5.2,1.5,5.2,4.2v0.1c0,2.5-1.9,4.2-5.1,4.2
			L583.1,382.4L583.1,382.4z M577.2,397h6v-9.3h5.2h0.1l6.3,9.3h7l-7.1-10.3c3.7-1.3,6.3-4.2,6.3-8.8v-0.1c0-2.6-0.9-4.9-2.4-6.4
			c-1.9-1.9-4.7-2.9-8.3-2.9h-12.9V397H577.2z"/>
	</g>
</g>
<rect id="_x3C_Slice_x3E_" x="337" y="357" fill="none" width="278" height="76"/>
</svg>
