<?xml version="1.0" encoding="utf-8"?>
<!-- Generator: Adobe Illustrator 18.1.1, SVG Export Plug-In . SVG Version: 6.00 Build 0)  -->
<svg version="1.1" id="Layer_1" xmlns="http://www.w3.org/2000/svg" xmlns:xlink="http://www.w3.org/1999/xlink" x="0px" y="0px"
	 viewBox="-412.1 1003.4 611.9 62.5" enable-background="new -412.1 1003.4 611.9 62.5" xml:space="preserve" preserveAspectRatio="xMinYMid meet">
<g display="none">
	<g display="inline">
		<path fill="#0E8BD1" d="M-102.2,1037.5c6.6-0.5,11.8-3.7,14.7-9.4c2.3-4.3,5.7-11.8,5.7-12.3c3.3-7.1,2.3-11.3,0.9-13.7
			c-2.3-3.7-6.6-5.7-9.9-5.7h-34l-35.4,75.7h17.5l13.3-28.4h9.4c0,0,2.8-0.5,4.3,1.4c0.9,1.9,0.9,4.8-0.9,8
			c-4.3,9-7.6,18.4-7.6,18.4h18c0,0,0.5-3.7,2.3-7.1c1.4-3.3,5.7-13.7,5.7-13.7C-95.1,1042.7-99.4,1039.3-102.2,1037.5z
			 M-110.7,1029.4H-123l9.4-18.9h13.3c0,0,1.4-0.9,1.9,0s0.5,1.9-0.5,3.7l-3.3,6.2l-1.9,3.7
			C-105.5,1027.1-107.5,1029.4-110.7,1029.4z M-291,1037.5c6.6-0.5,11.8-3.7,14.7-9.4c2.3-4.3,5.7-11.8,5.7-12.3
			c3.3-7.1,2.3-11.3,0.9-13.7c-2.3-3.7-6.6-5.2-9.9-5.2l-35-0.5l-34.5,75.7h17.5l13.3-28.4h9.4c0,0,2.8,0.5,4.3,2.3
			c0.9,1.9,0.9,3.3-0.9,7.1c-4.3,9-7.6,18.9-7.6,18.9h18c0,0,0.5-3.7,2.3-7.1c1.4-3.3,5.7-13.7,5.7-13.7
			C-283.9,1042.7-288.1,1039.3-291,1037.5z M-299.5,1029.4h-12.3l9.4-18.9h13.3c0,0,1.4-0.9,1.9,0c0.5,0.9,0.5,1.9-0.5,3.7l-3.3,6.2
			l-1.9,4.8C-294.3,1028-296.6,1029.4-299.5,1029.4z M-207.7,1015.7c6.2-13.3-0.9-19.4-9.4-19.4h-21.8c-9,0-15.6,4.8-19.4,13.3
			c-2.3,4.8-6.2,12.3-9.9,21.3l-9,18.9c-9,18.9,4.3,22.3,10.8,22.3h13.7c13.3,0,20.4-3.7,25.5-14.7c3.7-7.1,8.5-17.5,13.7-28.9
			L-207.7,1015.7z M-225.2,1013.8l-18,39.7c-2.3,5.2-4.3,4.8-8,4.8h-8c-1.4,0-4.3,0.5-1.9-3.7c2.8-6.6,15.6-35,18-40.7
			c1.9-3.7,3.7-2.8,6.2-2.8h9.4C-225.8,1010.4-223.8,1010.4-225.2,1013.8z M-178.9,1034.1l-5.7,9.4h9.4l-4.8,9.9
			c-1.4,3.3-2.3,4.3-6.2,4.3h-9c-2.8,0-3.7-1.4-2.3-4.8c2.3-4.3,18.9-38.8,18.9-38.8c1.9-3.7,2.8-3.7,5.7-3.7h9.4
			c2.3,0,3.3,2.3,1.4,5.2c-0.5,0.9-4.3,9-4.3,9h17l3.7-8.5c5.7-12.3,0.9-19.8-10.4-19.8h-18c-9.4,0-17,4.8-20.9,13.3
			c-3.3,7.1-18.9,40.2-18.9,40.2c-5.7,12.3-2.3,22.3,13.3,22.3h14.2c11.3,0,17-1.9,22.3-12.8l10.8-25.1H-178.9z M71.4,996.3
			l-35.4,75.7h17.9l35.4-75.7H71.4z M134.8,996.3l-41.1,66.2l20.9-66.2h-19L78,1071.9h24.6l51.5-75.7H134.8z M-7.6,1017.5
			c0-3.3,0.5-7.1,6.6-7.1h12.4l6.2-14.2H-3.4c-16.6,0-22.3,10.4-21.8,22.3c0.5,7.1,1.4,29.8,1.4,29.8c0,5.7-1.9,9-7.1,9H-45
			l-6.2,14.2h22.3c15.1,0,23.7-9.4,22.7-25.5L-7.6,1017.5z M34.5,1017.5c0-3.3,0.5-7.1,6.6-7.1h12.3l6.2-14.2H38.8
			c-13.7,0-22.3,8-21.8,22.3c0.5,7.1,1.4,29.8,1.4,29.8c0,5.7-1.9,9-7.1,9H-2.4l-6.6,14.2h22.3c16.1,0,23.7-11.3,22.7-25.5
			L34.5,1017.5z M195.3,1010.4l5.7-14.2h-41.1l-35,75.7h44l5.2-14.2h-25.5l8-14.2h22.7l5.7-14.2h-22.6l9.4-18.9H195.3z
			 M-75.8,1057.8l8-14.2h22.7l5.7-14.2h-22.7l9.4-18.9H-29l5.7-14.2h-41.1l-35,75.7h44l5.2-14.2H-75.8z M-339.3,1032.7
			c1.4-2.8,4.3-9.4,7.6-17c6.2-13.3-1.4-19.4-9-19.4h-33.6l-35,75.7h18.4l9.9-23.7c0,0,11.8,0,18.9,0
			C-350.6,1048.3-344,1042.1-339.3,1032.7z M-348.7,1015.7c-3.3,7.1-5.7,12.8-6.2,13.3c-1.4,3.3-3.7,5.2-6.6,5.2h-11.3l10.8-23.7
			h11.3C-348.3,1010.4-346.4,1011-348.7,1015.7z"/>
	</g>
</g>
<g>
	<g>
		<g>
			<path d="M-350.1,1012.4c-2.3-5.2-8.5-7.6-18-7.6h-15.6l-28.4,60.1h15.6c9.4,0,18-2.3,25.1-7.6c7.1-4.8,13.3-12.3,18-22.3
				C-348.7,1024.7-347.8,1017.1-350.1,1012.4z M-362.9,1034.1c-3.7,7.6-7.6,12.8-12.8,16.6c-4.8,3.3-10.8,5.2-18,5.2
				c0,0-3.3,0-4.3,0c0.9-1.9,19.8-41.6,20.4-42.1c0.9,0,5.7,0,5.7,0c6.6,0,10.8,1.4,12.8,4.8c0.5,0.9,0.5,2.3,0.5,3.3
				C-359.1,1024.7-360.6,1029-362.9,1034.1z"/>
		</g>
	</g>
</g>
<g>
	<path d="M-276.8,1004.4l-28.4,60.1h9.9l28.4-60.1H-276.8z"/>
</g>
<g>
	<path d="M-221.5,1004.4c0,0-34,43.5-36,46.4c0.5-3.7,8-46.4,8-46.4h-9.9l-9.4,60.1h10.4l47.3-60.1H-221.5z"/>
</g>
<g>
	<path d="M-204.9,1004.4l-28.4,60.1h38.3l4.3-9c0,0-26.5,0-28.4,0c0.9-1.9,8.5-17.5,8.5-18.4c0.9,0,19.4,0,19.4,0l4.3-8.5
		c0,0-17.5,0-19.4,0c0.9-1.4,7.1-15.1,7.6-15.6c0.9,0,26.9,0,26.9,0l4.3-8.5L-204.9,1004.4L-204.9,1004.4z"/>
</g>
<g>
	<path d="M-129.2,1004.4l-28.4,60.1h9.9l28.4-60.1H-129.2z"/>
</g>
<g>
	<path d="M-99,1020.9c-2.3,0.9-4.8,2.3-7.6,3.7c0.9-1.9,2.3-4.8,2.3-4.8h-8.5l-21.3,44.5h9l15.1-32.2c2.3-1.4,5.2-2.8,7.1-3.7
		c2.3-0.9,4.3-1.4,5.7-1.4c2.8,0,2.8,0.9,3.3,1.4c0,0.9,0,2.3-1.4,5.7l-14.2,29.8h9l15.1-31.7c1.9-4.3,2.3-7.6,1.4-9.9
		c-0.9-2.3-3.7-3.7-7.6-3.7C-93.7,1019.1-96.1,1020-99,1020.9z"/>
</g>
<g>
	<path d="M-66.8,1022.3c-3.7,2.3-6.6,5.2-8,9c-1.4,2.8-1.9,5.7-0.9,7.6c0.9,1.9,3.3,3.7,6.6,5.7l1.9,0.9c2.8,0.9,4.3,2.3,4.8,3.7
		c0.5,0.9,0,1.4,0,2.3c-0.9,1.4-1.9,2.8-3.7,3.7c-1.9,0.9-3.7,1.4-5.7,1.4s-3.3-0.5-4.8-1.4c-0.9-0.9-1.9-2.3-2.8-4.8v-0.9l-9,5.2
		v0.5c0.5,2.8,1.9,5.2,4.3,6.6c2.3,1.4,5.2,2.3,8.5,2.3c4.8,0,9-1.4,12.8-3.7c3.7-2.3,7.1-5.7,9-9.4c1.4-3.3,1.9-6.2,0.9-8.5
		c-0.9-2.3-3.7-4.3-8.5-6.6c-3.3-1.4-4.3-2.3-4.8-2.8s-0.5-1.4,0-2.8s1.9-2.3,3.3-3.3c1.4-0.9,3.3-1.4,4.8-1.4
		c1.4,0,2.8,0.5,3.7,1.4s1.9,1.9,2.3,3.7l0.5,0.9l8.5-5.7v-0.5c-0.9-2.3-2.3-4.3-4.3-5.7c-1.9-1.4-4.8-1.9-7.6-1.9
		C-59.2,1019.1-63.4,1020.5-66.8,1022.3z"/>
</g>
<g>
	<path d="M-5.3,1020l-15.1,32.2c-2.3,1.4-4.8,2.8-7.1,3.7s-3.7,1.4-5.7,1.4c-2.8,0-3.3-0.9-3.3-1.4c0-0.9,0-2.3,1.4-5.7l14.2-29.8
		h-9l-15.1,31.7c-1.9,4.3-2.3,7.6-1.4,9.9c0.9,2.3,3.7,3.7,7.6,3.7c2.3,0,4.8-0.5,7.6-1.4c2.3-0.9,4.8-2.3,7.6-3.7
		c-0.9,1.9-2.3,4.8-2.3,4.8h8.5L3.8,1021h-9v-1H-5.3z"/>
</g>
<g>
	<path d="M28.3,1021.9c-1.9,0.9-3.7,2.8-5.7,4.8c1.4-2.3,2.8-6.2,2.8-6.2h-9l-21.3,44.5h9.4l12.3-25.5c2.8-3.3,5.7-5.7,8.5-7.6
		c2.8-1.9,5.2-2.8,8-2.8h0.9l4.3-9.4h-1.4h-0.9C33.5,1019.1,30.7,1020,28.3,1021.9z"/>
</g>
<g>
	<path d="M101.7,1020.9c-2.3,0.9-4.8,2.3-7.6,3.7c0.9-1.9,2.3-4.8,2.3-4.8h-8.5l-21.3,44.5h9l15.1-32.2c2.3-1.4,4.8-2.8,7.1-3.7
		s4.3-1.4,5.7-1.4c2.8,0,2.8,0.9,3.3,1.4c0,0.9,0,2.3-1.4,5.7l-14.2,29.8h9l15.1-31.7c1.9-4.3,2.3-7.6,1.4-9.9
		c-0.9-2.3-3.7-3.7-7.6-3.7C106.9,1019.1,104.5,1020,101.7,1020.9z"/>
</g>
<g>
	<path d="M132.5,1025.1c-5.2,4.3-9.4,9.9-12.8,17c-3.3,7.1-4.3,12.8-3.3,16.6c1.4,4.3,4.8,6.2,10.8,6.2c4.3,0,8-0.9,11.8-2.8
		s7.1-4.8,10.8-8.5l0.5-0.5l-5.7-4.3l-0.5,0.5c-2.3,2.3-4.8,4.3-7.1,5.7c-2.3,1.4-4.3,1.9-6.6,1.9c-2.8,0-4.8-0.9-4.8-3.3
		c-0.5-2.3,0.5-6.2,3.3-11.3c2.3-5.2,5.2-9,8-11.3c2.8-2.3,5.7-3.7,9-3.7c1.9,0,3.3,0.5,3.7,1.4c0.9,0.9,0.9,2.8,0.5,5.2v0.9
		l9.4-3.3v-0.5c0.5-3.7,0-7.1-2.3-9c-1.9-1.9-5.2-3.3-9-3.3C142.9,1019.1,137.6,1021.4,132.5,1025.1z"/>
</g>
<g>
	<g>
		<path d="M-296.6,1008.6c-2.3-2.8-7.6-4.3-15.6-4.3h-18l-28.4,60.1h9.4c0,0,11.8-24.6,11.8-25.1h11.3c0,1.4,0,25.1,0,25.1h10.4
			c0,0-0.5-26.5-0.5-27.4c4.3-0.9,7.6-2.8,10.8-5.2c3.3-2.3,5.7-5.7,7.6-9.9c1.4-2.8,2.3-5.7,2.3-8
			C-294.8,1011.9-295.2,1010-296.6,1008.6z M-306.7,1021.9c-1.4,3.3-3.7,5.2-6.6,6.6s-6.6,2.3-11.3,2.3c0,0-6.6,0-8.5,0
			c0.9-1.9,8-17,8.5-17.5c0.9,0,9.4,0,9.4,0c4.8,0,8,0.5,9,1.9c0.5,0.5,0.9,1.4,0.9,2.3C-305.7,1018.5-306.2,1020-306.7,1021.9z"/>
	</g>
</g>
<g>
	<g>
		<path d="M199.6,1025.1c-1.4-4.3-4.8-6.2-9.9-6.2c-5.7,0-11.3,1.9-16.1,6.2c-5.2,4.3-9.4,9.9-12.8,17s-4.8,12.8-3.3,16.6
			c1.4,4.3,5.2,6.2,11.3,6.2c3.7,0,7.6-0.9,10.8-2.3c3.7-1.9,7.1-4.3,10.4-7.6l0.5-0.5l-5.2-4.3l-0.5,0.5c-2.3,2.3-4.3,3.7-6.6,4.8
			c-2.3,0.9-4.3,1.4-6.6,1.4c-3.3,0-4.8-0.9-5.7-3.3c0-0.5-0.5-0.9-0.5-1.9c0-1.9,0.9-4.8,2.3-7.6v-0.5c0.9,0,26.5,0,26.5,0l1.4-2.3
			c2.3-5.2,3.7-9.4,3.7-12.8C200.1,1027.6,199.6,1026.1,199.6,1025.1z M189.2,1037c-0.9,0-14.7,0-17,0c1.9-2.8,3.7-5.7,6.2-7.1
			c2.3-1.9,5.2-2.8,7.6-2.8c2.4,0,3.7,0.9,4.3,2.3c0,0.5,0.5,0.9,0.5,1.9C191.1,1032.7,190.2,1034.7,189.2,1037z"/>
	</g>
</g>
<g>
	<g>
		<path d="M71.4,1022.8c-1.4-2.3-4.8-3.7-9.4-3.7c-3.7,0-7.6,0.9-10.8,2.3c-3.3,1.4-6.6,3.7-9.9,6.6l-0.5,0.5l5.2,4.3l0.5-0.5
			c1.9-1.9,4.3-3.3,6.2-4.3c1.9-0.9,4.3-1.4,6.2-1.4c1.9,0,3.3,0.5,4.3,1.4c0.5,0.5,0.5,0.9,0.5,1.4c0,0.5,0,1.4-0.5,1.9
			c0,0-0.9,2.3-1.4,2.8c-9.4,1.4-16.6,3.7-21.8,6.2c-5.2,2.8-9,6.6-11.3,11.3c-0.9,2.3-1.4,4.3-1.4,6.2c0,0.9,0.5,2.3,0.9,3.3
			c1.4,2.3,3.7,3.3,7.6,3.3c2.3,0,5.2-0.5,7.6-1.4c2.3-0.9,4.8-1.9,7.1-3.3c-0.5,1.4-1.4,4.3-1.4,4.3h9l0.5-0.9l0.9-3.3l0.9-2.8
			l11.8-24.6C72.8,1028.5,72.8,1025.1,71.4,1022.8z M52.4,1051.7c-2.8,1.9-5.7,3.3-7.6,4.3c-2.3,0.9-4.3,1.4-5.7,1.4
			s-2.8-0.5-3.3-1.4c0-0.5-0.5-0.5-0.5-0.9s0-1.4,0.5-2.3c0.9-2.3,3.3-4.8,6.6-6.2c3.3-1.4,8-2.8,13.7-3.7
			C56.3,1044.1,52.4,1051.2,52.4,1051.7z"/>
	</g>
</g>
<path d="M-164.2,1009.5c0-3.3,2.8-6.2,6.2-6.2s6.2,2.8,6.2,6.2c0,3.3-2.8,6.2-6.2,6.2S-164.2,1012.9-164.2,1009.5L-164.2,1009.5z
	 M-152.8,1009.5c0-2.8-2.3-5.2-5.2-5.2s-5.2,2.3-5.2,5.2c0,2.8,2.3,5.2,5.2,5.2S-152.8,1012.4-152.8,1009.5L-152.8,1009.5z
	 M-155.3,1012.9h-0.9l-1.9-3.3h-1.4v3.3h-0.9v-6.6h2.8c0.5,0,0.9,0,1.9,0.5c0.5,0.5,0.9,0.9,0.9,1.4c0,1.4-0.9,1.9-2.3,1.9
	L-155.3,1012.9L-155.3,1012.9z M-158.1,1009c0.9,0,2.3,0,2.3-1.4c0-0.9-0.9-0.9-1.9-0.9h-1.9v2.3L-158.1,1009L-158.1,1009z"/>
</svg>
